<?xml version="1.0" encoding="UTF-8" standalone="no"?>
<!-- Created with Inkscape (http://www.inkscape.org/) -->

<svg
   width="1920"
   height="1080"
   viewBox="0 0 1920 1080"
   version="1.1"
   id="svg1"
   inkscape:version="1.4.3 (0d15f75042, 2025-12-25)"
   sodipodi:docname="topology question mark.svg"
   xmlns:inkscape="http://www.inkscape.org/namespaces/inkscape"
   xmlns:sodipodi="http://sodipodi.sourceforge.net/DTD/sodipodi-0.dtd"
   xmlns="http://www.w3.org/2000/svg"
   xmlns:svg="http://www.w3.org/2000/svg">
  <sodipodi:namedview
     id="namedview1"
     pagecolor="#ffffff"
     bordercolor="#000000"
     borderopacity="0.25"
     inkscape:showpageshadow="2"
     inkscape:pageopacity="0.0"
     inkscape:pagecheckerboard="0"
     inkscape:deskcolor="#d1d1d1"
     inkscape:document-units="px"
     inkscape:zoom="0.478125"
     inkscape:cx="609.6732"
     inkscape:cy="645.22876"
     inkscape:window-width="1920"
     inkscape:window-height="1016"
     inkscape:window-x="0"
     inkscape:window-y="0"
     inkscape:window-maximized="1"
     inkscape:current-layer="layer1" />
  <defs
     id="defs1" />
  <g
     inkscape:label="Layer 1"
     inkscape:groupmode="layer"
     id="layer1">
    <rect
       style="fill:#073984;stroke-width:3"
       id="rect1"
       width="479.16882"
       height="349.0242"
       x="612.70483"
       y="640.16046" />
    <rect
       style="fill:#0b5cd5;stroke-width:3"
       id="rect2"
       width="72.466888"
       height="174.5121"
       x="749.40485"
       y="744.46973" />
    <rect
       style="fill:#0b5cd5;stroke-width:3"
       id="rect2-3"
       width="72.466888"
       height="174.5121"
       x="883.01923"
       y="744.30084" />
    <rect
       style="fill:#4b2d83;stroke-width:3"
       id="rect3"
       width="471.77426"
       height="366.77121"
       x="72.155998"
       y="635.21625" />
    <rect
       style="fill:#6f42c1;stroke-width:3"
       id="rect4"
       width="93.171715"
       height="198.17476"
       x="261.45728"
       y="742.9859" />
    <text
       xml:space="preserve"
       style="font-size:42.6667px;font-family:Inter;-inkscape-font-specification:Inter;writing-mode:lr-tb;direction:ltr;fill:#000000;fill-opacity:1;stroke-width:3"
       x="688.99597"
       y="408.99158"
       id="text4"><tspan
         sodipodi:role="line"
         id="tspan4"
         x="688.99597"
         y="408.99158">managed instance </tspan></text>
    <text
       xml:space="preserve"
       style="font-size:42.6667px;font-family:Inter;-inkscape-font-specification:Inter;writing-mode:lr-tb;direction:ltr;fill:#000000;fill-opacity:1;stroke-width:3"
       x="364.48547"
       y="122.74007"
       id="text4-7"><tspan
         sodipodi:role="line"
         id="tspan4-3"
         x="364.48547"
         y="122.74007">level 7 load balancer</tspan></text>
    <text
       xml:space="preserve"
       style="font-size:42.6667px;font-family:Inter;-inkscape-font-specification:Inter;writing-mode:lr-tb;direction:ltr;fill:#000000;fill-opacity:1;stroke-width:3"
       x="686.03809"
       y="497.58777"
       id="text4-6"><tspan
         sodipodi:role="line"
         id="tspan4-0"
         x="686.03809"
         y="497.58777">net-managed-vm</tspan><tspan
         sodipodi:role="line"
         x="686.03809"
         y="550.92114"
         id="tspan10">10.69.2.0/24</tspan></text>
    <text
       xml:space="preserve"
       style="font-size:42.6667px;font-family:Inter;-inkscape-font-specification:Inter;writing-mode:lr-tb;direction:ltr;fill:#ffffff;fill-opacity:1;stroke:none;stroke-width:2;stroke-dasharray:none;stroke-opacity:1;paint-order:markers fill stroke"
       x="641.05908"
       y="733.05304"
       id="text4-6-9"><tspan
         sodipodi:role="line"
         id="tspan4-0-4"
         x="641.05908"
         y="733.05304">10.69.2.2</tspan></text>
    <text
       xml:space="preserve"
       style="font-size:42.6667px;font-family:Inter;-inkscape-font-specification:Inter;writing-mode:lr-tb;direction:ltr;fill:#ffffff;fill-opacity:1;stroke:none;stroke-width:2;stroke-dasharray:none;stroke-opacity:1;paint-order:markers fill stroke"
       x="223.3139"
       y="728.5639"
       id="text4-6-9-4"><tspan
         sodipodi:role="line"
         id="tspan4-0-4-7"
         x="223.3139"
         y="728.5639">10.69.1.2</tspan></text>
    <text
       xml:space="preserve"
       style="font-size:42.6667px;font-family:Inter;-inkscape-font-specification:Inter;writing-mode:lr-tb;direction:ltr;fill:#ffffff;fill-opacity:1;stroke:none;stroke-width:2;stroke-dasharray:none;stroke-opacity:1;paint-order:markers fill stroke"
       x="882.01923"
       y="732.88416"
       id="text4-6-9-2"><tspan
         sodipodi:role="line"
         id="tspan4-0-4-0"
         x="882.01923"
         y="732.88416">10.69.2.3</tspan></text>
    <text
       xml:space="preserve"
       style="font-size:42.6667px;font-family:Inter;-inkscape-font-specification:Inter;writing-mode:lr-tb;direction:ltr;fill:#000000;fill-opacity:1;stroke-width:3"
       x="104.32079"
       y="500.66779"
       id="text4-6-8"><tspan
         sodipodi:role="line"
         id="tspan4-0-7"
         x="104.32079"
         y="500.66779">net-unmanaged-vm</tspan><tspan
         sodipodi:role="line"
         x="104.32079"
         y="554.00116"
         id="tspan7">10.69.1.0/24</tspan></text>
    <text
       xml:space="preserve"
       style="font-size:42.6667px;font-family:Inter;-inkscape-font-specification:Inter;writing-mode:lr-tb;direction:ltr;fill:#000000;fill-opacity:1;stroke-width:3"
       x="80.02874"
       y="412.92087"
       id="text4-1"><tspan
         sodipodi:role="line"
         id="tspan4-2"
         x="80.02874"
         y="412.92087">UNmanaged instance </tspan></text>
    <text
       xml:space="preserve"
       style="font-size:42.6667px;font-family:Inter;-inkscape-font-specification:Inter;writing-mode:lr-tb;direction:ltr;fill:#000000;fill-opacity:1;stroke-width:3"
       x="1366.297"
       y="528.17133"
       id="text4-6-8-3"><tspan
         sodipodi:role="line"
         id="tspan4-0-7-7"
         x="1366.297"
         y="528.17133">net-database</tspan><tspan
         sodipodi:role="line"
         x="1366.297"
         y="581.5047"
         id="tspan11">10.69.3.0/24</tspan></text>
    <text
       xml:space="preserve"
       style="font-size:42.6667px;font-family:Inter;-inkscape-font-specification:Inter;writing-mode:lr-tb;direction:ltr;fill:#000000;fill-opacity:1;stroke-width:3"
       x="1361.1929"
       y="440.42441"
       id="text4-1-5"><tspan
         sodipodi:role="line"
         id="tspan4-2-9"
         x="1361.1929"
         y="440.42441">serverless sql</tspan></text>
    <rect
       style="fill:#96242f;fill-opacity:1;stroke-width:3"
       id="rect5"
       width="578.25623"
       height="357.89771"
       x="1215.6691"
       y="661.0755" />
    <rect
       style="fill:#dc3545;fill-opacity:1;stroke-width:3"
       id="rect6"
       width="107.96088"
       height="207.04826"
       x="1452.6982"
       y="756.92804" />
    <rect
       style="fill:#ffc107;fill-opacity:1;stroke-width:3"
       id="rect7"
       width="1001.2263"
       height="152.32837"
       x="72.466888"
       y="173.03319" />
    <text
       xml:space="preserve"
       style="font-size:42.6667px;font-family:Inter;-inkscape-font-specification:Inter;writing-mode:lr-tb;direction:ltr;fill:#ffffff;fill-opacity:1;stroke:none;stroke-width:2;stroke-dasharray:none;stroke-opacity:1;paint-order:markers fill stroke"
       x="1414.7762"
       y="748.59326"
       id="text4-6-9-2-3"><tspan
         sodipodi:role="line"
         id="tspan4-0-4-0-7"
         x="1414.7762"
         y="748.59326">10.69.3.2</tspan></text>
    <path
       style="fill:#20c997;fill-opacity:1;stroke:none;stroke-width:2;stroke-dasharray:none;stroke-opacity:1;paint-order:markers fill stroke"
       id="path11"
       d="m 554.5895,293.65227 c -3.67921,14.95243 -8.03241,29.72528 -12.34072,44.5051 -7.85963,27.38594 -16.51881,54.54611 -26.71782,81.15797 -2.34805,6.12666 -4.8407,12.19692 -7.26105,18.29538 -14.13134,35.03836 -31.33177,68.69157 -49.15573,101.96127 -12.24525,22.75168 -25.36559,45.01898 -38.90511,67.02049 -5.40043,8.66525 -10.90608,17.26353 -16.28737,25.94065 0,0 6.75106,3.40037 6.75106,3.40037 v 0 c 5.39178,-8.68073 10.90127,-17.28693 16.29907,-25.96398 13.59188,-22.1172 26.77202,-44.49507 39.06593,-67.36383 17.92445,-33.48904 35.2127,-67.36783 49.41425,-102.63771 2.43563,-6.14664 4.94389,-12.265 7.30689,-18.43993 10.23864,-26.75521 18.93406,-54.05917 26.8355,-81.58707 4.3292,-14.85879 8.69894,-29.71162 12.39467,-44.74415 z" />
    <path
       style="fill:#20c997;fill-opacity:1;stroke:none;stroke-width:2;stroke-dasharray:none;stroke-opacity:1;paint-order:markers fill stroke"
       id="path12"
       d="m 621.52522,294.14479 c -0.7707,7.27467 -0.80188,14.56281 -0.59462,21.86607 1.29018,20.08441 4.28602,40.02329 7.29625,59.90891 3.93843,25.04678 8.10608,50.05951 12.54114,75.0233 3.95865,22.68894 9.37351,45.07967 15.68366,67.21901 4.38439,15.21061 9.70368,30.12285 15.64016,44.79011 3.93785,9.91469 8.47864,19.56879 12.90891,29.2681 3.74206,8.09384 7.43589,16.22041 11.91842,23.93688 2.47596,4.27614 5.77896,7.95161 8.95066,11.70625 2.22125,2.67364 4.13043,5.58431 6.11671,8.43188 2.10984,3.4651 3.91968,7.07169 6.34556,10.33517 0.41855,0.48676 0.83709,0.97352 1.25563,1.46028 0,0 6.18834,-4.34095 6.18834,-4.34095 v 0 c -0.33224,-0.35517 -0.66448,-0.71034 -0.99672,-1.06551 -2.48232,-3.1168 -4.12677,-6.72323 -6.20948,-10.10369 -2.10747,-2.98844 -4.09098,-6.07044 -6.40733,-8.9054 -2.92611,-3.49624 -6.07607,-6.83619 -8.42143,-10.77387 -4.43536,-7.49638 -7.99179,-15.45518 -11.66541,-23.34269 -4.3905,-9.61707 -8.90784,-19.18163 -12.81693,-29.00947 -5.86751,-14.45105 -11.1241,-29.14516 -15.4532,-44.13626 -6.26595,-21.92743 -11.63478,-44.10731 -15.56084,-66.58258 -4.42855,-24.91004 -8.58547,-49.86974 -12.51898,-74.86256 -2.97543,-19.6312 -5.93409,-39.31432 -7.23827,-59.13979 -0.20509,-7.00804 -0.17957,-14.0008 0.5642,-20.98158 z" />
    <path
       style="fill:#20c997;fill-opacity:1;stroke:none;stroke-width:2;stroke-dasharray:none;stroke-opacity:1;paint-order:markers fill stroke"
       id="path13"
       d="m 487.49474,739.80324 c 8.29659,1.21501 16.70133,1.48116 25.0685,1.83233 14.27982,0.33558 28.53501,1.1771 42.78006,2.19209 10.77974,0.73413 21.52889,1.8318 32.30497,2.61312 4.30402,0.31717 8.6127,0.52812 12.92475,0.69041 0,0 2.08271,-7.26648 2.08271,-7.26648 v 0 c -4.23656,-0.12048 -8.46765,-0.31588 -12.69568,-0.6208 -10.77755,-0.74725 -21.5233,-1.85838 -32.30028,-2.61161 -14.30721,-1.03248 -28.62344,-1.94533 -42.96829,-2.25 -8.15822,-0.31985 -16.36161,-0.53934 -24.4596,-1.62515 z" />
    <path
       style="fill:#20c997;fill-opacity:1;stroke:none;stroke-width:2;stroke-dasharray:none;stroke-opacity:1;paint-order:markers fill stroke"
       id="path14"
       d="m 430.54341,969.36494 c 1.50959,7.75492 3.76251,15.39608 7.40674,22.43755 1.17204,2.26464 2.54245,4.42097 3.81368,6.63146 10.29794,15.43195 23.73061,25.39965 40.50156,33.14435 4.57832,2.1143 9.33338,3.8226 14.00008,5.7339 30.57187,10.9255 62.76694,16.0694 94.93252,19.5308 7.59087,0.8168 15.20122,1.4412 22.80183,2.1619 50.31485,3.8386 100.6652,7.247 151.02802,10.3971 31.91675,1.9802 63.89703,2.7897 95.87227,2.4141 12.36304,-0.1453 27.29789,-0.6472 39.70589,-1.0194 35.88559,-1.5929 71.78903,-2.488 107.7055,-2.9167 40.4636,-0.3153 80.9091,-1.5786 121.3202,-3.6184 25.204,-1.5074 50.3739,-3.7584 75.3967,-7.159 12.526,-1.7023 16.3668,-2.4509 28.5306,-4.5136 13.9943,-2.8178 28.3632,-5.0143 41.6334,-10.5393 8.0367,-3.346 8.7557,-4.2979 15.9531,-9.0332 10.71,-8.1751 18.8826,-18.9265 26.5139,-29.8914 0,0 -6.5894,-3.70402 -6.5894,-3.70402 v 0 c -7.2019,10.27482 -14.877,20.38932 -24.9999,27.99372 -6.6537,4.2828 -7.2706,5.113 -14.7274,8.1296 -12.9926,5.2562 -27.0172,7.32 -40.6684,10.0576 -12.1341,2.0315 -15.7723,2.7367 -28.2743,4.4132 -24.8785,3.3363 -49.8993,5.544 -74.9541,7.0102 -40.3351,2.0031 -80.7032,3.2424 -121.089,3.5526 -35.95225,0.4465 -71.88997,1.3852 -107.81247,2.9462 -14.32882,0.42 -25.14566,0.7944 -39.5481,0.9765 -30.58614,0.3866 -61.17683,-0.4563 -91.70806,-2.3118 -50.29965,-3.1321 -100.58353,-6.5628 -150.83896,-10.3352 -39.22808,-3.6505 -78.68149,-7.6876 -116.07843,-20.8885 -4.50595,-1.7982 -9.09267,-3.4059 -13.51784,-5.3946 -15.86649,-7.1304 -28.35521,-15.9774 -38.25808,-30.37315 -1.19298,-2.02687 -2.47676,-4.00295 -3.57892,-6.08059 -3.48402,-6.56759 -5.6026,-13.73042 -7.01725,-20.99956 z" />
    <path
       style="fill:#20c997;fill-opacity:1;stroke:none;stroke-width:2;stroke-dasharray:none;stroke-opacity:1;paint-order:markers fill stroke"
       id="path15"
       d="m 1073.2128,789.78619 c 31.4399,-1.46621 62.9339,-1.73405 94.4032,-2.18176 21.3015,-0.28516 42.6039,-0.50035 63.9062,-0.71731 0,0 -1.9426,-7.30517 -1.9426,-7.30517 v 0 c -21.3107,0.21848 -42.6215,0.43526 -63.9315,0.72406 -31.7221,0.45773 -63.5009,0.57217 -95.1724,2.43409 z" />
  </g>
</svg>
